<?xml version="1.0" standalone="no"?>
<!DOCTYPE svg PUBLIC "-//W3C//DTD SVG 20010904//EN"
 "http://www.w3.org/TR/2001/REC-SVG-20010904/DTD/svg10.dtd">
<svg version="1.0" xmlns="http://www.w3.org/2000/svg"
 width="300.000000pt" height="252.000000pt" viewBox="0 0 300.000000 252.000000"
 preserveAspectRatio="xMidYMid meet">
<metadata>
Created by potrace 1.10, written by Peter Selinger 2001-2011
</metadata>
<g transform="translate(0.000000,252.000000) scale(0.100000,-0.100000)"
fill="#000000" stroke="none">
<path d="M720 2497 c-98 -50 -566 -299 -573 -307 -18 -17 -27 -149 -27 -390
l0 -255 -45 -24 -45 -24 0 -58 0 -59 50 -25 c34 -17 57 -38 72 -65 17 -30 41
-49 93 -77 39 -21 77 -37 86 -36 12 2 16 -7 16 -40 0 -51 31 -115 73 -151 41
-34 91 -34 155 -1 l49 24 53 -30 c45 -26 57 -29 87 -21 36 10 39 9 259 -111
34 -19 159 -86 277 -150 413 -222 395 -211 398 -240 4 -33 4 -33 144 -106 98
-52 120 -60 135 -50 13 8 18 20 15 38 -5 38 31 81 69 81 16 0 29 -4 29 -10 0
-5 -5 -10 -11 -10 -7 0 -26 -15 -44 -34 -31 -33 -32 -36 -24 -88 10 -64 51
-126 101 -152 35 -20 36 -20 90 0 l55 21 20 -21 c24 -25 121 -76 144 -76 8 0
19 4 25 9 8 8 296 164 472 256 29 15 56 34 61 43 12 21 1 322 -13 348 -6 12
-61 63 -123 114 l-112 92 -85 167 c-47 92 -93 174 -103 182 -27 23 -272 150
-286 148 -48 -6 -47 -10 -47 174 l0 172 -88 46 c-96 51 -824 438 -942 502
-250 135 -406 217 -410 217 -3 -1 -25 -11 -50 -23z m76 -6 c10 -10 33 -22 469
-253 176 -94 372 -198 435 -232 174 -94 204 -110 351 -188 l136 -72 -296 -158
c-163 -87 -299 -158 -304 -158 -8 0 -74 35 -837 442 -201 107 -410 219 -465
248 -55 29 -104 56 -108 60 -5 4 115 71 265 150 150 79 282 149 293 157 22 15
47 17 61 4z m-421 -438 c227 -121 450 -240 560 -299 50 -26 214 -114 365 -194
l275 -147 3 -351 c1 -194 1 -352 -1 -352 -3 0 -540 285 -607 322 -25 14 -199
107 -388 207 -189 100 -366 195 -395 211 l-52 29 -3 228 c-3 200 10 429 25
456 3 4 15 2 26 -6 12 -8 99 -55 192 -104z m1823 -490 c-2 -122 -6 -167 -15
-171 -10 -3 -13 28 -13 132 0 128 -1 136 -19 136 -11 0 -27 -7 -36 -16 -14
-14 -16 -38 -14 -155 l2 -139 -49 -26 c-139 -74 -181 -99 -199 -119 -11 -12
-50 -38 -87 -58 l-67 -36 -3 151 c-3 159 -9 177 -45 141 -17 -17 -18 -41 -15
-351 2 -290 4 -333 17 -328 8 3 22 9 30 12 12 5 15 -6 15 -65 0 -68 -5 -81
-26 -62 -5 5 -106 61 -224 124 -401 213 -795 424 -834 447 -22 12 -150 81
-285 152 -308 164 -291 152 -253 172 38 20 46 20 39 2 -3 -8 0 -21 6 -29 7 -9
138 -83 292 -165 529 -281 890 -474 950 -507 239 -129 233 -127 256 -98 12 15
12 16 -3 10 -17 -6 -18 15 -18 346 l0 352 88 46 c111 58 291 154 407 217 50
28 93 50 98 51 4 0 6 -74 5 -166z m-52 -190 c-3 -7 -10 -13 -16 -13 -16 0 -14
277 3 283 9 3 13 -28 15 -127 1 -71 0 -136 -2 -143z m-2016 15 c0 -23 -3 -23
-50 5 -22 12 -40 30 -40 39 0 16 4 16 45 -4 29 -14 45 -29 45 -40z m1553 -627
c-30 -48 -33 -23 -33 302 0 251 3 326 13 330 15 5 35 -607 20 -632z m577 618
c8 -6 11 -12 5 -15 -5 -2 -86 -44 -179 -94 -136 -72 -172 -88 -187 -79 -22 11
-25 29 -6 30 6 0 80 38 162 84 152 84 178 93 205 74z m118 -43 c42 -24 97 -54
122 -68 43 -22 50 -33 135 -199 l90 -176 111 -91 c101 -83 124 -107 124 -132
0 -5 -30 -25 -67 -46 -38 -21 -83 -46 -101 -56 -18 -10 -39 -18 -47 -18 -16 0
-85 -38 -100 -56 -10 -11 -198 -114 -209 -114 -2 0 -6 10 -8 22 -2 14 -47 60
-123 123 l-119 101 -87 169 c-98 190 -83 175 -269 270 -49 26 -90 48 -90 50 0
2 23 15 50 29 51 27 54 26 41 -9 -7 -16 -1 -24 30 -43 l38 -23 78 42 c43 23
145 77 226 121 l149 80 -33 34 c-18 19 -30 34 -26 34 4 0 42 -20 85 -44z
m-2124 -4 c39 -20 71 -42 73 -47 2 -6 -3 -19 -10 -29 -21 -29 -65 -12 -119 46
-45 47 -53 68 -25 68 7 0 43 -17 81 -38z m2065 -16 c-2 -2 -62 -36 -134 -74
-220 -117 -250 -134 -262 -144 -10 -8 -13 -5 -13 8 0 45 28 67 200 159 172 92
175 93 194 74 11 -10 18 -20 15 -23z m-1871 -75 c59 -30 101 -82 128 -157 l25
-68 -23 -18 c-33 -25 -37 -23 -31 21 10 77 -38 166 -107 200 l-40 19 -22 -24
c-27 -28 -48 -31 -48 -7 0 25 30 53 57 53 13 0 40 -9 61 -19z m34 -81 c53 -57
60 -148 12 -167 -29 -11 -80 23 -103 69 -26 56 -27 92 0 119 25 25 54 18 91
-21z m149 -30 c14 0 11 -27 -5 -33 -8 -3 -18 5 -25 20 -10 22 -9 25 4 19 9 -3
21 -6 26 -6z m64 -63 c46 -26 61 -67 25 -67 -47 0 -102 52 -85 80 9 14 15 13
60 -13z m365 -167 c244 -131 286 -154 415 -223 72 -38 142 -76 158 -85 28 -17
36 -32 15 -32 -6 0 -142 70 -302 156 -341 183 -395 213 -458 248 -26 14 -64
30 -85 34 -32 7 -39 12 -41 36 l-4 28 89 -48 c48 -26 144 -77 213 -114z m840
97 l94 -52 83 -163 c83 -164 83 -164 83 -242 0 -98 -12 -116 -65 -94 -52 21
-89 18 -126 -13 l-32 -27 -65 34 c-36 19 -76 43 -89 53 l-23 18 0 270 0 269
23 0 c12 0 65 -24 117 -53z m1048 -428 c-8 -5 -15 -2 -20 11 -4 11 -14 20 -23
20 -23 0 -55 -37 -55 -65 0 -14 -5 -25 -11 -25 -6 0 -9 14 -7 33 3 28 11 36
63 64 l60 32 3 -31 c2 -18 -2 -34 -10 -39z m-1234 -2 c0 -9 -1 -31 -2 -48 -3
-47 -22 -24 -22 27 0 32 4 44 13 42 6 -3 12 -12 11 -21z m1206 -1 c0 -11 -39
-36 -55 -36 -12 0 -3 22 15 40 21 21 40 19 40 -4z m-658 -58 c35 -28 65 -53
67 -55 2 -1 -4 -18 -14 -37 -16 -29 -17 -38 -5 -65 7 -17 28 -44 46 -61 33
-28 42 -49 27 -63 -3 -4 -11 -2 -18 3 -6 5 -37 21 -67 34 -50 22 -55 23 -51 7
2 -10 30 -33 61 -51 118 -69 132 -80 132 -103 -1 -58 -34 -59 -116 -5 -40 27
-51 41 -62 80 -15 53 -32 64 -32 21 0 -24 -19 -72 -20 -51 0 4 -12 3 -27 -3
-14 -5 -33 -7 -41 -4 -13 5 -11 9 6 21 31 22 29 74 -4 113 -26 31 -57 40 -69
21 -8 -14 -35 -13 -35 1 0 6 13 26 29 44 16 18 31 39 33 46 4 11 10 11 32 1
15 -7 24 -8 21 -2 -3 5 1 20 9 32 9 13 16 43 16 69 0 39 5 59 16 59 2 0 31
-23 66 -52z m556 21 c-3 -26 -12 -35 -68 -65 -36 -20 -89 -49 -117 -65 l-53
-29 0 32 c0 26 6 37 28 49 19 11 33 13 43 6 19 -12 109 37 109 58 0 14 37 45
53 45 4 0 7 -14 5 -31z m142 22 c0 -16 -517 -297 -528 -287 -8 9 -17 3 233
137 127 67 244 131 260 141 35 21 35 21 35 9z m-215 -33 c-8 -20 -85 -59 -85
-43 0 14 56 53 77 54 7 1 10 -5 8 -11z m212 -61 c-5 -13 -75 -53 -81 -46 -2 2
-6 16 -10 31 -6 25 -2 30 41 52 l48 24 3 -25 c2 -13 1 -30 -1 -36z m-1108 -57
c66 -36 121 -71 121 -77 0 -21 -13 -16 -132 48 -107 58 -127 73 -128 92 0 11
-1 12 139 -63z m1007 23 c4 -15 3 -28 -2 -30 -5 -2 -72 -37 -148 -78 -77 -41
-142 -73 -144 -70 -5 5 5 46 15 61 10 14 244 143 260 144 7 0 16 -12 19 -27z
m124 -17 c0 -22 -30 -40 -257 -163 -294 -158 -277 -150 -271 -132 3 8 2 21 -3
30 -6 12 3 21 39 39 26 12 42 25 36 27 -7 2 -27 -5 -45 -16 -46 -28 -51 -27
-47 14 3 32 9 39 65 70 l62 34 -9 -25 c-10 -26 -14 -74 -5 -74 2 0 26 12 52
27 139 78 360 192 371 193 6 0 12 -11 12 -24z m-416 -2 c3 -9 6 -23 5 -32 0
-13 -3 -11 -11 6 -6 12 -18 22 -27 22 -14 0 -14 2 -1 10 21 13 27 12 34 -6z
m-184 -16 c34 -20 40 -28 40 -58 0 -26 3 -31 10 -20 5 8 10 24 10 36 0 12 10
25 25 32 24 11 36 0 15 -13 -5 -3 -10 -17 -10 -30 0 -28 -31 -49 -59 -40 -27
8 -69 56 -76 88 -9 33 -5 33 45 5z m160 -18 c0 -18 -27 -40 -50 -40 -7 0 -7 7
1 23 21 39 49 49 49 17z m-418 -97 c19 -17 25 -68 8 -78 -14 -8 -60 40 -60 63
0 35 22 42 52 15z"/>
<path d="M2412 1135 c-160 -84 -312 -165 -334 -179 -10 -6 -18 -20 -18 -31 0
-33 119 -245 137 -245 17 0 167 74 371 182 82 44 112 65 110 77 -5 25 -127
261 -136 261 -4 0 -62 -29 -130 -65z m153 -55 c25 -49 45 -93 45 -97 0 -5 -53
-35 -118 -67 -64 -33 -165 -85 -224 -116 l-107 -57 -45 90 c-25 49 -43 93 -41
97 3 5 56 35 118 68 225 119 272 145 292 158 11 8 23 14 27 14 4 0 28 -40 53
-90z m85 -128 c21 -17 19 -19 -192 -126 -117 -60 -222 -115 -233 -123 -26 -17
-32 -17 -45 6 -9 18 8 29 205 131 118 61 217 116 220 121 9 13 20 11 45 -9z"/>
<path d="M416 1164 c-11 -29 -7 -42 13 -37 12 3 24 -3 35 -18 21 -31 20 -56
-4 -69 -17 -9 -22 -5 -40 29 -11 22 -20 55 -20 73 -1 28 -2 30 -11 15 -27 -47
23 -137 79 -141 27 -2 34 2 39 22 8 35 -14 98 -44 121 -31 25 -39 26 -47 5z"/>
<path d="M650 1061 c0 -10 45 -41 60 -41 6 0 8 5 5 10 -9 15 -65 42 -65 31z"/>
<path d="M1775 1030 c-11 -18 6 -504 18 -518 6 -8 40 -29 77 -47 l65 -33 29
25 c25 21 36 24 75 20 25 -3 58 -8 74 -12 l27 -7 0 83 c-1 73 -5 91 -30 139
-16 30 -29 51 -29 45 0 -5 6 -21 14 -35 18 -32 19 -50 1 -50 -20 0 -289 148
-303 168 -8 10 -13 50 -13 109 0 105 7 115 59 88 17 -8 31 -13 31 -10 0 5 -75
45 -84 45 -3 0 -8 -5 -11 -10z m90 -328 c73 -51 50 -95 -24 -46 -38 24 -51 51
-34 67 10 10 15 9 58 -21z m233 -92 c8 0 12 -20 12 -56 l0 -56 -47 7 c-37 5
-56 2 -93 -15 l-47 -22 -51 26 c-28 14 -56 35 -62 45 -11 21 -14 84 -4 94 3 3
24 -1 45 -8 37 -13 41 -13 59 5 11 11 20 29 20 40 0 19 6 17 78 -20 43 -22 84
-40 90 -40z"/>
<path d="M1820 692 c0 -5 16 -16 35 -25 26 -12 33 -13 29 -3 -3 7 -16 18 -30
25 -30 13 -34 14 -34 3z"/>
<path d="M1800 911 c0 -69 4 -91 16 -102 27 -22 267 -149 273 -144 6 7 11 4
-124 74 -66 35 -126 68 -132 73 -9 7 -13 40 -13 99 0 53 -4 89 -10 89 -6 0
-10 -36 -10 -89z"/>
<path d="M1830 917 c0 -88 -2 -86 125 -152 50 -26 96 -52 103 -57 22 -19 12 6
-46 111 -54 100 -60 106 -119 139 l-63 34 0 -75z m99 -18 c22 -21 61 -90 61
-109 0 -12 -90 32 -114 55 -15 16 -22 66 -10 77 9 9 41 -3 63 -23z"/>
<path d="M1880 986 c0 -3 21 -16 48 -31 40 -22 53 -37 86 -101 21 -41 40 -73
42 -71 2 2 -15 37 -37 79 -33 63 -47 81 -85 102 -48 27 -54 29 -54 22z"/>
<path d="M744 768 c58 -46 104 -69 112 -57 4 7 3 9 -3 6 -5 -3 -33 9 -61 28
-67 43 -84 52 -48 23z"/>
<path d="M1284 477 c25 -22 118 -78 106 -64 -6 6 -109 76 -124 83 -6 3 2 -6
18 -19z"/>
<path d="M1441 392 c32 -25 99 -65 99 -59 0 6 -105 77 -115 77 -4 0 3 -8 16
-18z"/>
</g>
</svg>
